HIERARCHY
ROOT Hips
{
	OFFSET	0	0	0
	CHANNELS 6  Xposition Yposition Zposition Xrotation Yrotation Zrotation
	JOINT Spine
	{
		OFFSET	0	6.86795	1.37906
		CHANNELS 3  Xrotation Yrotation Zrotation
		JOINT Spine1
		{
			OFFSET	0	11.7606	-2.1001
			CHANNELS 3  Xrotation Yrotation Zrotation
			JOINT Spine2
			{
				OFFSET	0	8.91491	0.955545
				CHANNELS 3  Xrotation Yrotation Zrotation
				JOINT Spine3
				{
					OFFSET	0	10.6685	3.17115
					CHANNELS 3  Xrotation Yrotation Zrotation
					JOINT Spine4
					{
						OFFSET	0	15.7927	-1.61708
						CHANNELS 3  Xrotation Yrotation Zrotation
						JOINT Neck
						{
							OFFSET	0	7.53935	-5.28175
							CHANNELS 3  Xrotation Yrotation Zrotation
							JOINT Head
							{
								OFFSET	0	9.05142	-2.70913
								CHANNELS 3  Xrotation Yrotation Zrotation
								End Site
								{
									OFFSET	0	18.8799	-0.913543
								}
							}
						}
					}
					JOINT LeftShoulder
					{
						OFFSET	-4.53621	19.1949	-9.05142
						CHANNELS 3  Xrotation Yrotation Zrotation
						JOINT LeftArm
						{
							OFFSET	-9.8955	-2.70912	3.47568
							CHANNELS 3  Xrotation Yrotation Zrotation
							JOINT LeftForeArm
							{
								OFFSET	-33.3495	-1.52213	2.38045
								CHANNELS 3  Xrotation Yrotation Zrotation
								JOINT LeftHand
								{
									OFFSET	-27.054	-1.86958	1.93108
									CHANNELS 3  Xrotation Yrotation Zrotation
									End Site
									{
										OFFSET	-9.87335	-0.682306	0.704704
									}
								}
							}
						}
					}
					JOINT RightShoulder
					{
						OFFSET	4.53621	19.1949	-9.05142
						CHANNELS 3  Xrotation Yrotation Zrotation
						JOINT RightArm
						{
							OFFSET	9.8955	-2.70912	3.47568
							CHANNELS 3  Xrotation Yrotation Zrotation
							JOINT RightForeArm
							{
								OFFSET	33.3495	-1.52213	2.38045
								CHANNELS 3  Xrotation Yrotation Zrotation
								JOINT RightHand
								{
									OFFSET	27.054	-1.86958	1.93108
									CHANNELS 3  Xrotation Yrotation Zrotation
									End Site
									{
										OFFSET	9.87335	-0.682306	0.704704
									}
								}
							}
						}
					}
				}
			}
		}
	}
	JOINT LeftUpLeg
	{
		OFFSET	-9.35843	-3.43397	-0.689532
		CHANNELS 3  Xrotation Yrotation Zrotation
		JOINT LeftLeg
		{
			OFFSET	-2.06148	-40.3938	-0.631444
			CHANNELS 3  Xrotation Yrotation Zrotation
			JOINT LeftFoot
			{
				OFFSET	-2.01493	-37.1416	3.19418
				CHANNELS 3  Xrotation Yrotation Zrotation
				JOINT LeftToeBase
				{
					OFFSET	0	-4.59973	-12.2169
					CHANNELS 3  Xrotation Yrotation Zrotation
					End Site
					{
						OFFSET	0	-1.83989	-7.35956
					}
				}
			}
		}
	}
	JOINT RightUpLeg
	{
		OFFSET	9.35843	-3.43397	-0.689532
		CHANNELS 3  Xrotation Yrotation Zrotation
		JOINT RightLeg
		{
			OFFSET	2.06148	-40.3938	-0.631444
			CHANNELS 3  Xrotation Yrotation Zrotation
			JOINT RightFoot
			{
				OFFSET	2.01493	-37.1416	3.19418
				CHANNELS 3  Xrotation Yrotation Zrotation
				JOINT RightToeBase
				{
					OFFSET	0	-4.59973	-12.2169
					CHANNELS 3  Xrotation Yrotation Zrotation
					End Site
					{
						OFFSET	0	-1.83989	-7.35956
					}
				}
			}
		}
	}
}
MOTION
Frames: 6
Frame Time: 0.020408
 -161.705 73.3565 90.5125 106.603 -83.0686 111.045 180 -179.987 178.273 168.787 -179.975 177.122 168.696 -179.924 177.122 172.26 -179.987 178.273 176.88 179.969 179.425 1.97376 15.7152 7.05544 0.556933 18.6193 3.45589 0.0215303 13.9803 0.0350821 74.7594 -6.74836 41.3896 170.456 -45.9996 171.097 -0 -19.0171 -5.41685 175.145 178.642 -170.461 89.1219 -0.975846 -41.8327 169.774 58.0037 -169.637 -0 11.8607 -9.93715 36.9487 6.3544 -28.5943 121.107 -161.146 179.689 21.8553 0.0829717 11.4248 177.549 180 -180 29.3315 0.28354 19.2326 135.932 -158.305 -179.774 4.9369 0.0366975 -5.21774 179.634 180 -180
 -161.679 72.6721 90.7086 100.617 -83.1109 104.907 180 -179.995 178.292 168.72 -179.99 177.154 168.618 -179.97 177.154 172.178 -179.995 178.292 176.944 179.97 179.432 2.16741 15.1925 7.0747 0.631395 17.6078 3.38282 179.798 165.395 179.674 75.5673 -7.77888 42.0311 170.284 -44.9047 171.169 -0 -18.996 -5.47395 174.797 178.924 -169.791 89.0743 1.0833 -42.6399 170.06 55.0111 -170.187 -0 11.8418 -10.0533 37.3927 4.60873 -29.4573 121.108 -161.242 179.46 19.4734 0.124782 11.4123 177.545 180 -180 30.1093 0.918656 19.1614 132.121 -157.857 179.905 8.6548 -0.0366441 -5.12025 179.652 180 -180
 -161.792 72.2652 91.0556 95.4418 -82.9807 99.9189 0.000101246 0.0033821 -1.71468 168.7 179.993 177.142 168.581 179.98 177.142 172.106 179.997 178.285 177.076 179.971 179.429 2.52083 14.3427 6.81456 0.750641 16.2903 3.20495 179.352 164.95 178.961 76.0058 -8.8539 42.855 169.931 -45.2054 170.929 -0 -18.6793 -5.53839 174.564 178.992 -169.333 90.1277 2.93334 -43.8405 170.199 52.2547 -170.462 -0 11.6501 -9.99968 37.582 3.47415 -30.724 121.37 -161.286 179.525 17.4464 0.0975017 11.4258 177.538 180 -180 30.4796 1.5122 18.373 129.495 -157.434 179.974 11.3848 -0.19622 -5.0375 179.669 180 -180
 -161.83 71.953 91.3531 89.3643 -82.4947 94.1444 0.000458129 0.0151475 -1.73236 168.688 179.97 177.113 168.516 179.909 177.113 171.934 179.985 178.268 177.451 179.974 179.423 3.5699 13.6861 6.55146 1.08248 15.0097 3.02434 179.042 164.833 178.468 76.2022 -9.70486 43.927 169.505 -45.9884 170.476 -0 -18.2972 -5.64122 174.16 178.481 -168.476 91.2496 4.68397 -45.5809 170.174 50.2522 -170.726 -0 11.3022 -9.84284 37.5237 2.60841 -31.8039 122.008 -161.291 179.593 15.7718 0.0875209 11.451 177.529 180 -180 30.1705 1.72899 17.7083 127.471 -157.695 179.961 14.2216 -0.171565 -4.93514 179.686 180 -180
 -161.739 71.7326 91.2265 86.1163 -82.1707 91.1243 0.000573581 0.0194492 -1.68924 168.669 179.961 177.185 168.487 179.883 177.185 171.886 179.981 178.311 177.528 179.976 179.437 3.70782 13.1717 6.98992 1.14883 13.5705 3.05543 178.628 164.314 177.823 76.4706 -10.7292 44.7794 168.99 -47.2352 169.983 -0 -17.845 -5.8053 173.898 178.195 -167.918 92.5523 5.8441 -47.2021 170.054 49.6767 -170.867 -0 10.6452 -9.70174 36.9326 1.81756 -33.1622 123.456 -161.291 179.52 13.9707 0.102612 11.4214 177.517 180 -180 29.8182 1.9676 17.7274 126.308 -158.015 179.924 17.1621 -0.166369 -4.76405 179.702 180 -180
 -161.582 71.7421 91.1925 82.1808 -81.8065 87.7739 0.000372159 0.0128012 -1.66525 168.692 179.974 177.225 168.513 179.923 177.225 171.918 179.987 178.335 177.497 179.976 179.445 3.49537 12.6363 7.51497 1.1087 12.1532 3.11618 178.151 163.671 177.096 77.1854 -12.0182 45.5092 168.501 -48.3702 169.583 -0 -17.3803 -5.97481 173.614 178.243 -167.348 94.181 7.01223 -48.405 169.926 49.1705 -170.926 -0 10.1894 -9.56845 36.4677 1.16368 -34.2978 124.883 -161.246 179.595 12.7267 0.0505941 11.4146 177.507 180 -180 29.18 1.85552 17.4259 125.64 -158.261 179.811 18.7221 -0.170618 -4.60146 179.715 180 -180
